<svg id="Layer_1" data-name="Layer 1" xmlns="http://www.w3.org/2000/svg" viewBox="0 0 180 180"><defs><style>.cls-1{fill:#878787;}.cls-2{fill:#ffbbf9;}.cls-3{fill:#ff361d;}.cls-4{fill:#ff0303;}.cls-5{fill:#fbff8a;}.cls-6{fill:#339d00;}.cls-7{fill:#fb5400;}.cls-8{opacity:0.54;}.cls-9{fill:#ff39ec;}.cls-10{fill:#266b24;}</style></defs><path class="cls-1" d="M24.12,145c.24.31.5.61.77.91l-.08-.08Z"/><path class="cls-1" d="M22.55,143.09c.09.13.19.25.3.38-.14-.16-.26-.32-.38-.47l-.17-.23Z"/><path class="cls-2" d="M150.7,150.7A85.57,85.57,0,0,1,90,175.84V90Z"/><path class="cls-1" d="M22.3,142.77l.25.32s-.05-.06-.08-.09Z"/><path class="cls-1" d="M24.89,145.93l-.08-.08-.69-.83C24.36,145.33,24.62,145.63,24.89,145.93Z"/><path class="cls-2" d="M90,4.16V90L29.3,29.3c1.21-1.2,2.44-2.36,3.71-3.49.78-.69,1.58-1.38,2.39-2,1.06-.87,2.14-1.72,3.24-2.54l1.4-1,1.05-.75,1.19-.8c.37-.27.75-.51,1.13-.75,1.19-.77,2.4-1.52,3.64-2.23.49-.29,1-.57,1.47-.83s1-.55,1.48-.8,1-.53,1.51-.78L53,12.52c1-.49,2-.95,3.09-1.4l1.57-.66,1.58-.62,1.6-.6c1.61-.58,3.24-1.12,4.89-1.59.45-.15.91-.27,1.37-.4l.64-.18c.44-.11.87-.23,1.31-.33l1.68-.41q1-.23,2-.42c.7-.14,1.4-.28,2.1-.4s1.42-.25,2.12-.35c.5-.08,1-.16,1.48-.21l.94-.13,1.75-.2,1.71-.16h.07l1-.08c.53,0,1.08-.07,1.62-.09l.25,0c.51,0,1,0,1.55-.06C88.19,4.17,89.09,4.16,90,4.16Z"/><path class="cls-3" d="M90,90H4.16c0-.69,0-1.37,0-2.06,0-.27,0-.53,0-.8v0a.54.54,0,0,1,0-.18c0-.32,0-.64,0-1,0-.14,0-.26,0-.39,0-.62.07-1.23.11-1.84s.11-1.31.17-2,.14-1.36.22-2c0-.34.08-.69.13-1s.09-.68.14-1l.21-1.38s0-.1,0-.15a.68.68,0,0,1,0-.19,1.92,1.92,0,0,1,0-.32c0-.13,0-.25.06-.38v0c0-.24.09-.48.14-.72s.1-.6.17-.9c.1-.57.22-1.12.33-1.68l0-.13c0-.15.07-.31.11-.46.13-.6.26-1.19.41-1.77s.33-1.34.51-2,.37-1.34.57-2c.09-.33.18-.64.29-1s.13-.44.21-.66a1.21,1.21,0,0,1,.05-.14s0,0,0-.06,0-.12.05-.17a.49.49,0,0,1,0-.11c.16-.52.34-1,.52-1.55.09-.28.19-.56.29-.85,0,0,0-.08.05-.12.15-.44.31-.87.48-1.3.24-.66.49-1.3.76-1.94.11-.3.24-.59.36-.88s.21-.52.33-.77a.32.32,0,0,0,0-.09c.09-.19.18-.39.26-.58.17-.4.36-.8.55-1.2.09-.23.21-.46.32-.7s.18-.41.29-.61.19-.41.29-.61L13,52l.14-.27c.06-.11.1-.21.16-.32.13-.27.27-.54.41-.8l.76-1.44.42-.76.39-.7.12-.21.11-.2c.06-.09.11-.18.17-.26a.45.45,0,0,1,.11-.19l.07-.13a1.13,1.13,0,0,1,.12-.21l.12-.21.21-.35.26-.43c.35-.59.73-1.18,1.1-1.76s.74-1.16,1.13-1.72.68-1,1-1.49q.28-.42.6-.84c.2-.28.4-.54.6-.81l.1-.14.13-.17c.34-.45.67-.89,1-1.33l.25-.32c.16-.2.32-.41.49-.61s.21-.27.32-.4c.25-.31.5-.62.76-.92s.29-.35.45-.52.29-.36.44-.53l.2-.23q.48-.56,1-1.11s0-.05.06-.08c.24-.28.49-.54.75-.81s.68-.75,1-1.12L29.3,29.3Z"/><path class="cls-3" d="M175.84,90c0,.69,0,1.37,0,2.06,0,.31,0,.6,0,.91,0,.48,0,1-.06,1.45s-.07,1.23-.11,1.84-.11,1.31-.17,2-.14,1.36-.22,2-.17,1.37-.27,2-.17,1.15-.27,1.72c0,.18-.06.36-.08.54-.11.6-.21,1.2-.34,1.81s-.26,1.29-.39,1.94a.89.89,0,0,0,0,.14c-.15.66-.3,1.31-.46,2s-.33,1.34-.51,2-.37,1.34-.57,2-.38,1.28-.59,1.92l-.06.18c-.16.52-.34,1-.52,1.55-.07.23-.16.46-.24.68-.19.54-.38,1.06-.58,1.59s-.49,1.3-.76,1.94-.48,1.18-.73,1.76c-.08.19-.17.38-.25.56-.17.4-.36.8-.55,1.2-.09.24-.21.47-.32.7-.18.41-.38.82-.58,1.22s-.23.49-.35.72l-.5,1-.76,1.44a.21.21,0,0,1-.06.1c-.27.5-.54,1-.82,1.48l-.32.55c-.29.52-.6,1-.9,1.52s-.73,1.18-1.1,1.76-.74,1.16-1.13,1.72-.68,1-1,1.49c-.13.18-.25.37-.39.54-.31.44-.62.87-.95,1.3a.62.62,0,0,1-.09.12c-.34.45-.67.89-1,1.33-.59.76-1.2,1.52-1.82,2.25-.31.39-.64.76-1,1.14s-.77.89-1.17,1.33-1,1.09-1.5,1.62-1,1.06-1.54,1.59L90,90Z"/><path class="cls-2" d="M90,90,29.3,150.7c-.78-.79-1.55-1.59-2.29-2.4-.26-.27-.51-.53-.75-.81-.46-.51-.92-1-1.37-1.56-.27-.3-.53-.6-.77-.91-.43-.51-.86-1-1.27-1.55-.11-.13-.21-.25-.3-.38l-.25-.32q-2.46-3.14-4.61-6.5c-.37-.58-.75-1.17-1.1-1.76-.27-.44-.53-.88-.78-1.33a1.18,1.18,0,0,1-.11-.19c-.14-.23-.27-.43-.4-.66-.54-1-1.06-1.93-1.57-2.91l-.41-.8-.44-.89c-.1-.2-.2-.4-.29-.61l-.15-.3c-.13-.27-.26-.54-.38-.82a1.08,1.08,0,0,1-.08-.19c-.19-.4-.38-.8-.55-1.2s-.23-.5-.33-.76a3.07,3.07,0,0,1-.14-.34l-.15-.34c-.2-.47-.39-.93-.58-1.41s-.36-.94-.54-1.41-.33-.86-.48-1.3-.24-.65-.34-1c-.18-.52-.36-1-.52-1.55a.25.25,0,0,1,0-.11c-.22-.66-.43-1.32-.61-2s-.39-1.32-.57-2-.35-1.33-.51-2-.28-1.17-.41-1.77c-.07-.27-.13-.54-.19-.82a.69.69,0,0,0,0-.13c-.09-.44-.18-.88-.26-1.32s-.13-.6-.17-.9L5.48,105a2.21,2.21,0,0,1-.05-.25s0,0,0,0c-.06-.4-.14-.81-.2-1.21s-.13-.81-.18-1.21c-.1-.68-.19-1.36-.27-2s-.16-1.36-.22-2-.12-1.32-.17-2-.07-1.06-.09-1.6c0-.34,0-.69,0-1,0-.18,0-.36,0-.54a.38.38,0,0,1,0-.15h0a0,0,0,0,1,0,0,0,0,0,0,1,0,0h0c0-.27,0-.53,0-.8,0-.69,0-1.37,0-2.06Z"/><path class="cls-1" d="M22.3,142.77l.25.32s-.05-.06-.08-.09Z"/><path class="cls-3" d="M90,90v85.84c-.64,0-1.27,0-1.9,0-.33,0-.67,0-1,0s-.73,0-1.1,0l-.75,0-1.39-.08H83.8l-.93-.08-.71-.06-.34,0c-.25,0-.49,0-.73-.06l-1.75-.2-.94-.13h-.09c-.46,0-.93-.12-1.39-.2-.7-.1-1.42-.22-2.12-.35s-1.4-.26-2.1-.4-1.17-.25-1.76-.37l-.19-.05-1.68-.41-1-.24-.22-.06-1-.25c-.4-.12-.8-.23-1.19-.36l-.19,0-1-.31-.44-.14h0c-.51-.15-1-.32-1.52-.49l-1.68-.59-1.6-.6-1.58-.62-1.57-.66c-1-.44-2.07-.9-3.09-1.4l-1.51-.74c-.51-.25-1-.51-1.51-.78s-1-.52-1.48-.8-1-.54-1.47-.83-1-.61-1.56-.92-.91-.56-1.35-.85c-.24-.14-.48-.3-.73-.46s-.69-.44-1-.68a.17.17,0,0,1-.1-.07l-.91-.61,0,0c-.13-.09-.28-.18-.42-.29l-.19-.13c-.23-.16-.46-.32-.68-.49-.83-.59-1.65-1.2-2.46-1.82-.28-.23-.57-.45-.86-.67l-1.32-1.07c-.53-.44-1.06-.88-1.57-1.34-.38-.31-.74-.64-1.1-1s-.43-.37-.64-.57l-.63-.59c-.15-.13-.3-.27-.46-.43-.57-.53-1.13-1.08-1.7-1.64Z"/><path class="cls-2" d="M175.84,90H90l60.7-60.7c.52.53,1,1.05,1.54,1.59s1,1.08,1.5,1.62.79.88,1.17,1.33.66.75,1,1.14c.62.73,1.23,1.49,1.82,2.25.35.44.68.88,1,1.33l.09.12c.33.43.64.86.95,1.3.14.18.26.36.39.54.35.49.69,1,1,1.49s.76,1.14,1.13,1.72.75,1.17,1.1,1.76.61,1,.9,1.52l.32.55c.28.49.55,1,.82,1.48l.06.1.76,1.44.5,1,.35.72c.2.4.4.81.58,1.22.11.24.23.47.32.7.19.4.38.8.55,1.2.08.19.17.37.25.56.25.58.49,1.17.73,1.76s.52,1.28.76,1.94.39,1.05.58,1.59c.09.22.17.45.24.68.18.52.36,1,.52,1.55a.55.55,0,0,1,.06.18c.21.64.41,1.28.59,1.92s.39,1.32.57,2,.35,1.33.51,2,.31,1.3.46,2l0,.14c.13.65.27,1.29.39,1.94s.23,1.21.34,1.81c0,.18.06.36.08.54.1.57.19,1.15.27,1.72s.19,1.36.27,2,.16,1.36.22,2,.12,1.32.17,2,.08,1.22.11,1.84.05,1,.06,1.45c0,.31,0,.6,0,.91C175.83,88.63,175.84,89.31,175.84,90Z"/><path class="cls-3" d="M150.7,29.3,90,90V4.16A85.57,85.57,0,0,1,150.7,29.3Z"/><path class="cls-4" d="M29.87,140.21c.23.28.46.56.71.83l-.07-.07C30.29,140.72,30.08,140.47,29.87,140.21Z"/><path class="cls-4" d="M28.45,138.46a2.61,2.61,0,0,0,.27.33,4.58,4.58,0,0,1-.35-.42l-.16-.21Z"/><path class="cls-5" d="M145.39,145.39a78.05,78.05,0,0,1-55.39,23V90Z"/><path class="cls-5" d="M28.21,138.16l.24.3a.57.57,0,0,1-.08-.09Z"/><path class="cls-5" d="M30.58,141l-.07-.07c-.22-.25-.43-.5-.64-.76C30.1,140.49,30.33,140.77,30.58,141Z"/><path class="cls-5" d="M90,11.66V90L34.61,34.61c1.09-1.1,2.22-2.16,3.37-3.19.72-.63,1.45-1.26,2.19-1.87,1-.8,1.95-1.57,3-2.32.43-.32.85-.63,1.28-.93s.63-.47,1-.68.71-.5,1.08-.73.68-.47,1-.69c1.09-.71,2.19-1.39,3.33-2,.44-.26.88-.51,1.34-.76s.89-.49,1.35-.73.91-.48,1.37-.7.92-.46,1.38-.68c.94-.45,1.88-.87,2.82-1.28l1.43-.6L62,16.84l1.46-.55c1.46-.53,3-1,4.46-1.45.41-.13.83-.24,1.25-.36l.58-.16L70.89,14l1.55-.37c.59-.14,1.18-.26,1.77-.38s1.28-.26,1.92-.37,1.29-.23,1.94-.32c.45-.07.89-.14,1.35-.19.28-.05.56-.08.85-.12.53-.07,1.06-.13,1.6-.18l1.56-.15h.06l.9-.07c.49,0,1-.07,1.48-.08l.23,0c.47,0,.94,0,1.42,0C88.35,11.67,89.17,11.66,90,11.66Z"/><path class="cls-6" d="M90,90H11.66c0-.63,0-1.25,0-1.88,0-.24,0-.49,0-.73v0a.43.43,0,0,1,0-.16c0-.29,0-.59,0-.88,0-.12,0-.24,0-.35,0-.57.06-1.12.1-1.68l.15-1.8c.06-.62.13-1.25.2-1.86l.12-.94c0-.32.09-.62.13-.94s.13-.83.19-1.25l0-.14a.51.51,0,0,1,0-.17,1.65,1.65,0,0,1,0-.3c0-.11,0-.22.06-.35v0l.12-.66c.05-.27.1-.54.16-.82.1-.52.2-1,.3-1.53l0-.12c0-.14.06-.28.1-.42.12-.54.24-1.08.37-1.61s.31-1.23.47-1.84.34-1.22.52-1.82c.08-.3.17-.58.26-.87l.2-.6a.33.33,0,0,1,0-.13.43.43,0,0,1,0,0,1.56,1.56,0,0,1,0-.16.42.42,0,0,1,0-.1c.14-.47.3-.94.47-1.41.08-.27.17-.52.26-.78,0,0,0-.08.05-.11.14-.4.29-.79.43-1.19.23-.6.46-1.19.7-1.77.1-.27.22-.54.33-.8s.19-.47.3-.71l0-.08.24-.53c.15-.36.32-.73.49-1.09s.19-.42.3-.64.16-.37.26-.56.17-.37.27-.55.09-.19.13-.28.09-.17.12-.25l.15-.28c.12-.25.24-.5.37-.73.23-.45.47-.88.7-1.32.12-.23.25-.46.38-.69l.36-.64a1.74,1.74,0,0,0,.1-.19L22,51a2.07,2.07,0,0,1,.15-.25.59.59,0,0,1,.1-.17s.05-.08.06-.11a1.32,1.32,0,0,1,.12-.2l.11-.19c.06-.1.12-.22.19-.32l.24-.39c.32-.54.66-1.08,1-1.6s.68-1.07,1-1.58.62-.91.94-1.36c.18-.25.36-.51.55-.76s.36-.5.54-.74a.64.64,0,0,1,.1-.13,1.67,1.67,0,0,1,.12-.16c.3-.41.61-.81.92-1.21l.24-.3c.13-.18.28-.37.44-.55s.19-.25.3-.37c.22-.28.45-.56.68-.83s.27-.33.41-.48.27-.32.41-.48.11-.14.18-.21c.29-.34.6-.68.9-1l.06-.07c.22-.25.45-.49.68-.74s.63-.68,1-1,.75-.78,1.14-1.16Z"/><path class="cls-6" d="M168.34,90c0,.63,0,1.25,0,1.88,0,.28,0,.55,0,.83,0,.44,0,.88-.05,1.32s-.06,1.12-.1,1.68l-.15,1.8c-.06.62-.13,1.25-.2,1.86s-.16,1.25-.25,1.88-.16,1-.25,1.56a4.33,4.33,0,0,1-.08.5q-.13.82-.3,1.65c-.11.59-.24,1.18-.36,1.77a.59.59,0,0,0,0,.13l-.42,1.78c-.15.62-.31,1.23-.47,1.84s-.34,1.22-.52,1.82-.35,1.17-.54,1.75l-.06.16c-.14.47-.3.94-.47,1.41-.06.21-.14.43-.21.63-.18.49-.35,1-.53,1.45s-.46,1.19-.7,1.77-.44,1.07-.67,1.6c-.07.18-.15.35-.23.52-.15.36-.32.73-.49,1.09s-.19.43-.3.64c-.16.37-.35.75-.53,1.11s-.21.45-.32.66-.3.6-.45.88c-.23.45-.47.88-.7,1.32a.26.26,0,0,1,0,.09q-.37.69-.75,1.35l-.29.51c-.27.47-.55.93-.83,1.38s-.66,1.08-1,1.6-.68,1.06-1,1.58-.62.91-.94,1.36c-.12.16-.23.34-.35.49-.29.4-.57.79-.87,1.19l-.09.11c-.3.41-.61.81-.92,1.21-.54.7-1.1,1.38-1.66,2.05-.29.36-.59.7-.89,1s-.71.81-1.07,1.21L146.8,144q-.69.72-1.41,1.44L90,90Z"/><path class="cls-5" d="M90,90,34.61,145.39c-.72-.71-1.42-1.44-2.1-2.18-.23-.25-.46-.49-.68-.74-.43-.47-.84-.95-1.25-1.43-.25-.27-.48-.55-.71-.83-.39-.47-.78-.94-1.15-1.42a2.61,2.61,0,0,1-.27-.33l-.24-.3c-1.49-1.91-2.9-3.89-4.2-5.94-.34-.52-.68-1.06-1-1.6s-.49-.8-.72-1.21l-.1-.17c-.12-.21-.25-.4-.36-.61-.5-.88-1-1.76-1.44-2.66-.13-.24-.25-.48-.37-.73s-.27-.54-.4-.81-.18-.36-.27-.55l-.13-.27c-.12-.26-.24-.5-.35-.75l-.08-.18c-.17-.36-.34-.73-.49-1.09s-.21-.46-.31-.7l-.13-.3-.13-.32c-.18-.42-.36-.85-.53-1.29s-.33-.85-.5-1.28-.29-.79-.43-1.19-.22-.59-.31-.89c-.17-.47-.33-.94-.47-1.41a.21.21,0,0,1,0-.1c-.2-.6-.39-1.2-.56-1.81s-.35-1.21-.52-1.82-.32-1.22-.47-1.84-.25-1.07-.37-1.61c-.06-.25-.12-.49-.17-.74a.59.59,0,0,1,0-.13L13.1,105c-.06-.28-.11-.55-.16-.82s0-.29-.07-.43,0-.16,0-.23,0,0,0,0c-.06-.37-.13-.74-.18-1.11s-.12-.74-.17-1.1c-.09-.62-.17-1.25-.25-1.88s-.14-1.24-.2-1.86l-.15-1.8c0-.49-.07-1-.08-1.45,0-.32,0-.64,0-1a4.18,4.18,0,0,1,0-.5.33.33,0,0,1,0-.14h0s0,0,0,0a0,0,0,0,1,0,0h0c0-.24,0-.49,0-.73,0-.63,0-1.25,0-1.88Z"/><path class="cls-5" d="M28.21,138.16l.24.3a.57.57,0,0,1-.08-.09Z"/><path class="cls-7" d="M90,90v78.34c-.58,0-1.16,0-1.73,0-.31,0-.61,0-.92,0s-.67,0-1,0l-.68,0c-.43,0-.85,0-1.28-.07h0l-.85-.07-.64-.06a1.73,1.73,0,0,1-.32,0l-.66-.06c-.54,0-1.07-.11-1.6-.18-.29,0-.57-.07-.85-.12h-.09c-.42-.05-.85-.11-1.26-.18-.65-.09-1.3-.2-1.94-.32s-1.28-.24-1.92-.37-1.07-.22-1.6-.34l-.17,0L70.89,166l-.87-.22-.2-.05-.87-.24-1.08-.32-.18,0-.94-.28-.4-.13h0l-1.39-.44-1.53-.54L62,163.16l-1.45-.57-1.43-.6c-.94-.4-1.88-.83-2.82-1.28-.46-.22-.92-.44-1.38-.68s-.91-.46-1.37-.7-.91-.48-1.35-.73-.9-.5-1.34-.76-1-.56-1.43-.85-.83-.5-1.24-.77l-.66-.42c-.31-.2-.63-.4-.94-.62a.18.18,0,0,1-.09-.07l-.83-.55,0,0c-.12-.08-.25-.16-.38-.26l-.17-.12-.62-.45c-.76-.54-1.51-1.09-2.25-1.66l-.78-.61-1.21-1c-.49-.4-1-.8-1.44-1.22s-.67-.58-1-.89c-.2-.16-.39-.34-.58-.52s-.38-.36-.58-.53l-.41-.39c-.53-.49-1-1-1.55-1.51Z"/><path class="cls-5" d="M168.34,90H90l55.39-55.39q.72.72,1.41,1.44l1.37,1.48c.36.4.72.8,1.07,1.21s.6.69.89,1c.56.67,1.12,1.35,1.66,2.05.31.4.62.8.92,1.21l.09.11c.3.4.58.79.87,1.19l.35.49c.32.45.63.9.94,1.36s.69,1,1,1.58.68,1.06,1,1.6.56.91.83,1.38l.29.51q.38.66.75,1.35a.41.41,0,0,0,0,.09c.23.44.47.87.7,1.32.15.28.3.58.45.88s.22.44.32.66.37.74.53,1.11.21.43.3.64.34.73.49,1.09c.08.18.16.34.23.52.23.53.45,1.06.67,1.6s.47,1.17.7,1.77.35,1,.53,1.45q.12.31.21.63c.17.47.33.94.47,1.41a.52.52,0,0,1,.06.16c.19.58.37,1.17.54,1.75s.35,1.21.52,1.82.32,1.22.47,1.84l.42,1.78,0,.13c.12.59.25,1.18.36,1.77s.21,1.1.3,1.65a2.89,2.89,0,0,1,.08.5c.09.52.18,1,.25,1.56s.17,1.25.25,1.88.14,1.24.2,1.86l.15,1.8c0,.56.08,1.11.1,1.68s.05.88.05,1.32c0,.28,0,.55,0,.83C168.33,88.75,168.34,89.37,168.34,90Z"/><path class="cls-7" d="M145.39,34.61,90,90V11.66A78.05,78.05,0,0,1,145.39,34.61Z"/><g class="cls-8"><path class="cls-9" d="M125,89.16c0-.12,0-.25,0-.37s0-.4,0-.59,0-.5,0-.75l-.06-.81-.09-.83c0-.28-.07-.56-.11-.84s-.07-.46-.11-.7a2.07,2.07,0,0,0,0-.22c0-.24-.08-.49-.13-.74s-.11-.52-.16-.79l0,0-.18-.8-.21-.82c-.08-.27-.15-.55-.24-.82s-.15-.52-.24-.78a.19.19,0,0,0,0-.07l-.21-.63c0-.09-.06-.19-.1-.28l-.23-.65c-.11-.27-.21-.53-.32-.79s-.19-.48-.3-.72c0-.07-.06-.15-.1-.23l-.22-.49-.13-.28c-.07-.17-.16-.33-.24-.5a2.59,2.59,0,0,0-.14-.29c-.07-.14-.13-.27-.2-.4l-.32-.58s0,0,0,0l-.33-.6a2.53,2.53,0,0,1-.13-.22c-.12-.22-.25-.42-.37-.62s-.3-.49-.45-.72-.3-.47-.46-.7l-.42-.61c0-.07-.1-.15-.16-.22a6.55,6.55,0,0,0-.39-.53l0,0-.42-.54c-.24-.31-.49-.62-.74-.92l-.4-.47-.47-.54-.62-.66c-.2-.22-.41-.43-.63-.64A34.86,34.86,0,0,0,90,55l-1.11,0-.63,0h-.1l-.67,0-.4,0h0l-.69.07-.72.08-.38.05c-.2,0-.4.06-.6.09l-.87.14-.86.16-.79.18-.69.16-.53.14-.26.07-.56.16c-.67.2-1.34.41-2,.65l-.66.25-.64.25-.64.27-1.26.57-.62.3c-.21.1-.41.21-.61.32s-.41.21-.61.33l-.6.33c-.5.3-1,.6-1.48.91l-.46.31-.49.33-.42.3-.58.42c-.45.33-.89.68-1.32,1l-1,.83c-.51.46-1,.94-1.5,1.43-.18.17-.35.34-.51.52l-.43.45-.31.33s0,0,0,0l-.4.46-.08.09a2,2,0,0,0-.19.22l-.18.21c-.11.12-.21.25-.31.37l-.13.17a2.43,2.43,0,0,0-.2.25l-.1.13L62,69l0,.07a.21.21,0,0,0,0,.06,4,4,0,0,0-.24.33c-.09.11-.17.23-.25.34l-.42.61c-.16.23-.31.46-.46.7s-.31.48-.45.72L60,72a1.19,1.19,0,0,0-.09.15.56.56,0,0,0,0,.08.41.41,0,0,0,0,.09l0,0a.2.2,0,0,0,0,.08.61.61,0,0,0-.07.1l-.05.09a.59.59,0,0,0,0,.08,2.69,2.69,0,0,0-.16.29,3.07,3.07,0,0,0-.17.31l-.32.58-.16.33a.83.83,0,0,0-.07.13,1.17,1.17,0,0,0,0,.11l-.06.12c0,.08-.08.17-.12.25a1.92,1.92,0,0,0-.12.25l-.13.28-.22.49-.11.24s0,0,0,0-.09.21-.14.31-.1.24-.14.36-.21.52-.32.79-.13.35-.19.53c0,0,0,0,0,0l-.12.35-.21.63s0,0,0,0l0,.07v0a.14.14,0,0,0,0,.06l-.09.27c0,.12-.08.25-.11.38s-.16.55-.24.82l-.21.82c-.06.24-.11.48-.17.72,0,.06,0,.13,0,.19v0c-.05.23-.09.45-.14.68s-.05.25-.07.37,0,.2-.05.29v0l0,.15s0,.09,0,.13,0,0,0,.08v.06l-.09.56c0,.14,0,.28-.05.42l-.06.42-.09.83-.06.81c0,.25,0,.5-.05.75,0,0,0,.1,0,.15s0,.27,0,.4a.09.09,0,0,0,0,.07h0c0,.11,0,.22,0,.33,0,.28,0,.56,0,.84s0,.56,0,.84c0,.11,0,.22,0,.33h0a.06.06,0,0,0,0,.06,1.55,1.55,0,0,0,0,.22c0,.15,0,.29,0,.43s0,.43,0,.65l.06.81.09.83c0,.28.07.56.11.84s0,.33.08.49,0,.33.08.49v0a.44.44,0,0,0,0,.1l0,.19c0,.12,0,.24.07.37l.11.53v.06c0,.11,0,.22.07.33s.11.48.17.72l.21.82c.08.27.15.55.24.82s.15.54.24.8a.08.08,0,0,0,0,0l.21.63c0,.13.09.27.14.4s.13.35.19.53l.23.57c.07.2.15.39.23.58l.06.14.06.13c0,.11.09.21.14.32l.22.49,0,.07a3.54,3.54,0,0,0,.16.34l.06.12c0,.08.07.17.12.25s.11.24.18.36l.16.33c.21.4.42.79.65,1.18a2.4,2.4,0,0,0,.16.27.59.59,0,0,0,0,.08c.1.19.21.36.32.54s.3.49.45.72c.58.91,1.21,1.8,1.88,2.65l.1.13.12.16.52.63.31.37.56.64.31.33c.3.33.62.66.94,1s.45.46.69.68l.18.17.26.24.26.23.45.4c.21.19.42.37.64.54l.54.44c.12.09.24.18.35.28l1,.74.27.2.08,0,.17.12h0l.37.25,0,0,.42.28.29.18.56.35.63.38c.2.11.4.23.6.33s.4.23.61.33.4.22.61.32l.62.3q.63.3,1.26.57l.64.27.64.25.66.25.68.24.62.2h0l.18.06c.14,0,.28.09.42.12l.08,0,.48.14.39.11.09,0,.39.1.69.16.08,0,.71.16.86.16.87.14.56.08h0l.38,0,.72.08.29,0h.14l.29,0,.38,0h0c.2,0,.38,0,.57,0l.31,0h.45l.41,0H90a34.86,34.86,0,0,0,24.75-10.26c.22-.21.43-.42.63-.64l.62-.66.47-.54.4-.47c.25-.3.5-.61.74-.92L118,111l0,0a6.55,6.55,0,0,0,.39-.53c.06-.07.11-.15.16-.22l.42-.61c.16-.23.31-.46.46-.7s.31-.48.45-.72l.37-.62.13-.22.33-.6s0,0,0,0l.32-.58c.07-.13.13-.26.2-.4a2.59,2.59,0,0,0,.14-.29c.08-.17.17-.33.24-.5s.09-.19.13-.28l.22-.49c0-.08.07-.16.1-.23q.17-.36.3-.72c.11-.26.21-.52.32-.79l.23-.65.1-.28.21-.63a.19.19,0,0,0,0-.07q.14-.39.24-.78c.09-.27.16-.55.24-.82l.21-.82.18-.8s0,0,0,0c.05-.27.11-.53.16-.79s.09-.5.13-.74c0-.08,0-.15,0-.22,0-.24.07-.47.11-.7s.07-.56.11-.84l.09-.83.06-.81c0-.25,0-.5,0-.75s0-.39,0-.59,0-.25,0-.37c0-.28,0-.56,0-.84S125,89.44,125,89.16Z"/></g><path class="cls-10" d="M102.61,89.7v-.14c0-.07,0-.14,0-.21a2.45,2.45,0,0,0,0-.27,2.83,2.83,0,0,0,0-.29l0-.3c0-.1,0-.2,0-.3s0-.17,0-.25,0-.06,0-.08a2.56,2.56,0,0,0-.05-.27,2.33,2.33,0,0,0,0-.28v0l-.06-.28c0-.1-.05-.2-.08-.3l-.08-.29-.09-.28s0,0,0,0,0-.15-.07-.23a.3.3,0,0,1,0-.1l-.09-.23c0-.1-.07-.19-.11-.29a2.72,2.72,0,0,0-.11-.25l0-.09-.08-.17,0-.11-.09-.18,0-.1a.61.61,0,0,0-.07-.14c0-.08-.07-.15-.11-.22h0l-.12-.22a.56.56,0,0,1,0-.08c0-.08-.09-.15-.13-.22l-.16-.26-.17-.25-.15-.22-.06-.08a1.33,1.33,0,0,0-.14-.19s0,0,0,0l-.15-.2-.27-.33-.14-.17-.17-.19-.22-.24-.23-.23A12.59,12.59,0,0,0,90,77.38h-.66l-.24,0h-.16l-.25,0-.26,0-.13,0-.22,0-.31,0-.31.06-.29.06-.25.06-.19,0-.09,0a1.17,1.17,0,0,0-.2.06c-.25.07-.49.14-.72.23l-.24.09-.23.09-.23.1-.45.2-.23.11a1.51,1.51,0,0,1-.22.11L83.9,79l-.21.12-.54.33-.16.11-.18.12-.15.11-.21.15-.48.37-.35.31-.54.51-.18.19c-.06,0-.11.11-.16.16l-.11.12h0a2.09,2.09,0,0,0-.14.17l0,0-.07.08-.06.07a1.34,1.34,0,0,0-.11.14l0,.06-.07.09,0,0-.15.2,0,0v0l-.09.12-.09.13-.15.22-.17.25-.16.26,0,.06,0,0,0,0s0,0,0,0v0s0,0,0,0l0,0v0l0,0-.06.1L78.9,84c0,.07-.07.14-.11.22l-.06.11s0,0,0,.05l0,0,0,0,0,.09,0,.09,0,.11-.08.17,0,.09h0a1.17,1.17,0,0,1,0,.11,1.12,1.12,0,0,0,0,.13c0,.1-.08.19-.11.29a1.46,1.46,0,0,0-.07.19v0l-.05.12c0,.08,0,.15-.07.23v0h0v0l0,.1s0,.09,0,.14l-.08.29c0,.1,0,.2-.08.3l-.06.26s0,0,0,.07h0c0,.09,0,.17,0,.25l0,.13s0,.07,0,.11h0s0,0,0,.06,0,0,0,0v0a1.18,1.18,0,0,0,0,.2,1806338986844.44,1806338986844.44,0,0,0,0,.3l0,.3a2.83,2.83,0,0,0,0,.29,2.45,2.45,0,0,0,0,.27v.06s0,.09,0,.14v0h0v.12c0,.1,0,.2,0,.3s0,.2,0,.3v.12h0v0a.22.22,0,0,0,0,.08v.16c0,.07,0,.15,0,.23a2.83,2.83,0,0,0,0,.29l0,.3c0,.1,0,.2,0,.3l0,.18,0,.18h0a.06.06,0,0,0,0,0v.07l0,.13,0,.19v0s0,.08,0,.12l.06.26c0,.1.05.2.08.3l.08.29.09.29s0,0,0,0,0,.15.07.23l.06.14a1.46,1.46,0,0,0,.07.19,18108324909997.81,18108324909997.81,0,0,0,.16.42l0,.05a.08.08,0,0,1,0,0,.61.61,0,0,1,0,.12l.08.17v0l.06.12,0,0,0,.09.06.13.06.11c.07.15.15.29.23.43l.06.1,0,0,.11.19.16.26c.21.33.44.65.68,1l0,0a.21.21,0,0,0,0,.06l.19.23.11.13.2.23.11.12c.11.12.22.24.34.35a2.83,2.83,0,0,0,.25.24.23.23,0,0,0,.07.07l.09.08.09.09.16.14.23.2.2.15.13.1.36.27.1.07,0,0,.07,0h0l.14.09h0l.15.1.11.06a1.37,1.37,0,0,0,.2.13l.23.14.21.12.22.12a1.51,1.51,0,0,1,.22.11l.23.11.45.2.23.1.23.09.24.09L86,102l.23.07h0l.07,0,.15,0h0l.17.06.14,0h0l.14,0,.25.06h0l.26.06.31.06.31,0,.2,0h0l.13,0,.26,0h.41l.2,0H90a12.59,12.59,0,0,0,8.92-3.7l.23-.23.22-.24.17-.19.14-.17.27-.33.15-.2s0,0,0,0a1.33,1.33,0,0,0,.14-.19l.06-.08.15-.22.17-.25.16-.26.13-.22,0-.08.12-.22h0c0-.07.07-.14.11-.22a.61.61,0,0,0,.07-.14l0-.1.09-.18,0-.11.08-.17,0-.09a2.72,2.72,0,0,0,.11-.25c0-.1.08-.19.11-.29l.09-.23a.42.42,0,0,1,0-.1c0-.08,0-.15.07-.23v0l.09-.28.08-.29c0-.1,0-.2.08-.3l.06-.28s0,0,0,0a2.33,2.33,0,0,0,0-.28,2.56,2.56,0,0,0,.05-.27s0,0,0-.08,0-.16,0-.25,0-.2,0-.3l0-.3a2.83,2.83,0,0,0,0-.29,2.45,2.45,0,0,0,0-.27c0-.07,0-.14,0-.21V90.3c0-.1,0-.2,0-.3S102.61,89.8,102.61,89.7Z"/></svg>